<?xml version="1.0" encoding="UTF-8"?>
<!-- Generated by Pixelmator Pro 3.5.5 -->
<svg width="85" height="87" viewBox="0 0 85 87" xmlns="http://www.w3.org/2000/svg">
    <g id="Group-copy">
        <path id="Path" fill="#ff6136" stroke="none" d="M 62.299999 28.199997 L 4.7 85.900002 L 12.8 85.900002 L 66.400002 32.300003 C 66.599998 32.099998 66.599998 31.800003 66.400002 31.599998 L 63 28.199997 C 62.799999 28 62.5 28 62.299999 28.199997 Z"/>
        <path id="path1" fill="#ff6136" stroke="none" d="M 5.8 43.900002 L 47 2.599998 L 38.900002 2.599998 L 1.7 39.800003 C 1.5 40 1.5 40.300003 1.7 40.5 L 5.1 43.900002 C 5.3 44.099998 5.6 44.099998 5.8 43.900002 Z"/>
        <path id="path2" fill="#ff6136" stroke="none" d="M 70.5 36.400002 L 21.1 85.900002 L 29.1 85.900002 L 74.599998 40.5 C 74.800003 40.300003 74.800003 40 74.599998 39.800003 L 71.199997 36.400002 C 71 36.199997 70.699997 36.199997 70.5 36.400002 C 70.5 36.400002 70.5 36.400002 70.5 36.400002 Z"/>
        <path id="path3" fill="#ff6136" stroke="none" d="M 78.699997 44.5 L 37.400002 85.900002 L 45.5 85.900002 L 82.699997 48.599998 C 82.900002 48.399998 82.900002 48.099998 82.699997 47.899998 L 79.300003 44.5 C 79.199997 44.400002 78.900002 44.400002 78.699997 44.5 Z"/>
        <path id="path4" fill="#ff6136" stroke="none" d="M 9.9 48.599998 L 13.3 52 C 13.5 52.199997 13.8 52.199997 14 52 L 63.300003 2.599998 L 55.200001 2.599998 L 9.9 48 C 9.7 48.099998 9.7 48.399998 9.9 48.599998 Z"/>
        <path id="path5" fill="#ff6136" stroke="none" d="M 18.1 56.799999 L 21.5 60.199997 C 21.700001 60.399998 22 60.399998 22.200001 60.199997 L 79.699997 2.599998 L 71.599998 2.599998 L 18.1 56.099998 C 17.9 56.299999 17.9 56.599998 18.1 56.799999 Z"/>
    </g>
</svg>
